<svg width="580" height="400" xmlns="http://www.w3.org/2000/svg">
 <!-- Created with Method Draw - http://github.com/duopixel/Method-Draw/ -->
 <g>
  <title>background</title>
  <rect fill="#fff" id="canvas_background" height="402" width="582" y="-1" x="-1"/>
  <g display="none" overflow="visible" y="0" x="0" height="100%" width="100%" id="canvasGrid">
   <rect fill="url(#gridpattern)" stroke-width="0" y="0" x="0" height="100%" width="100%"/>
  </g>
 </g>
 <g>
  <title>Layer 1</title>
  <path d="m148,109.539612l18.716492,0l5.783508,-18.547058l5.783539,18.547058l18.716461,0l-15.141907,11.462555l5.783844,18.547058l-15.141937,-11.462891l-15.141907,11.462891l5.783844,-18.547058l-15.141937,-11.462555z"/>
  <path d="m148,109.539612l18.716492,0l5.783508,-18.547058l5.783539,18.547058l18.716461,0l-15.141907,11.462555l5.783844,18.547058l-15.141937,-11.462891l-15.141907,11.462891l5.783844,-18.547058l-15.141937,-11.462555z"/>
  <path d="m148,109.539612l18.716492,0l5.783508,-18.547058l5.783539,18.547058l18.716461,0l-15.141907,11.462555l5.783844,18.547058l-15.141937,-11.462891l-15.141907,11.462891l5.783844,-18.547058l-15.141937,-11.462555z"/>
  <path transform="rotate(18, 172.5, 115.271)" d="m148,109.539612l18.716492,0l5.783508,-18.547058l5.783539,18.547058l18.716461,0l-15.141907,11.462555l5.783844,18.547058l-15.141937,-11.462891l-15.141907,11.462891l5.783844,-18.547058l-15.141937,-11.462555z"/>
  <text transform="matrix(1.20345, 0, 0, 1.32582, -34.4268, -69.135)" xml:space="preserve" text-anchor="start" font-family="'Courier New', Courier, monospace" font-size="24" id="svg_1" y="202.480765" x="135.043266" stroke-width="0" stroke="#000" fill="#000000">Mystique Boutique</text>
  <g transform="rotate(-78.9464, 324, 104.95)" id="svg_7">
   <line stroke-linecap="undefined" stroke-linejoin="undefined" id="svg_2" y2="170.449997" x2="395.5" y1="46.449997" x1="247.5" stroke-width="1.5" stroke="#000" fill="none"/>
   <line stroke-linecap="undefined" stroke-linejoin="undefined" id="svg_3" y2="163.449997" x2="400.5" y1="39.449997" x1="252.5" stroke-width="1.5" stroke="#000" fill="none"/>
   <line stroke-linecap="undefined" stroke-linejoin="undefined" id="svg_4" y2="41.449997" x2="253.5" y1="46.449997" x1="248.5" fill-opacity="null" stroke-opacity="null" stroke-width="1.5" stroke="#000" fill="none"/>
   <line stroke-linecap="undefined" stroke-linejoin="undefined" id="svg_5" y2="56.449997" x2="271.5" y1="61.449997" x1="266.5" fill-opacity="null" stroke-opacity="null" stroke-width="1.5" stroke="#000" fill="none"/>
   <line stroke-linecap="undefined" stroke-linejoin="undefined" id="svg_6" y2="163.449997" x2="400.5" y1="170.449997" x1="393.5" fill-opacity="null" stroke-opacity="null" stroke-width="1.5" stroke="#000" fill="none"/>
  </g>
  <path d="m195,150.664017l14.896805,0l4.603195,-14.761932l4.603226,14.761932l14.896774,0l-12.051727,9.12326l4.60347,14.761948l-12.051743,-9.12352l-12.051727,9.12352l4.60347,-14.761948l-12.051743,-9.12326z"/>
  <path d="m205,97.625755l9.931198,0l3.068802,-9.841293l3.068817,9.841293l9.931183,0l-8.034485,6.082176l3.068985,9.841293l-8.0345,-6.082352l-8.034485,6.082352l3.068985,-9.841293l-8.0345,-6.082176z"/>
  <path d="m161,31.539612l18.716492,0l5.783508,-18.547058l5.783539,18.547058l18.716461,0l-15.141907,11.462555l5.783844,18.547058l-15.141937,-11.462891l-15.141907,11.462891l5.783844,-18.547058l-15.141937,-11.462555z"/>
  <path d="m161,31.539612l18.716492,0l5.783508,-18.547058l5.783539,18.547058l18.716461,0l-15.141907,11.462555l5.783844,18.547058l-15.141937,-11.462891l-15.141907,11.462891l5.783844,-18.547058l-15.141937,-11.462555z"/>
  <path d="m161,31.539612l18.716492,0l5.783508,-18.547058l5.783539,18.547058l18.716461,0l-15.141907,11.462555l5.783844,18.547058l-15.141937,-11.462891l-15.141907,11.462891l5.783844,-18.547058l-15.141937,-11.462555z"/>
 </g>
</svg>